<svg xmlns="http://www.w3.org/2000/svg" width="29" height="30" viewBox="0 0 29 30" fill="none">
    <g id="flower 1 2" clip-path="url(#clip0_168_6576)">
        <g id="Livello_6">
            <g id="Group">
                <path id="Vector"
                    d="M19.3954 8.69012C17.2645 9.1361 15.2686 9.96179 13.5098 11.1111C13.5812 11.1876 13.65 11.264 13.7163 11.3405C19.0488 17.5612 10.6498 26.524 7.84082 29.2176C13.571 31.1468 23.1348 27.212 28.5872 14.9159L19.3954 8.69012Z"
                    fill="#D11316" />
                <path id="Vector_2"
                    d="M7.28016 16.208C8.39153 14.1667 9.91328 12.4083 11.7256 10.999C11.5446 10.8563 11.3535 10.7161 11.1521 10.5785C10.7646 11.0857 10.1529 11.4144 9.46466 11.4144C8.29212 11.4144 7.34134 10.4638 7.34134 9.29156C7.34134 8.11929 8.29212 7.16873 9.46466 7.16873C10.6372 7.16873 11.588 8.11929 11.588 9.29156C11.588 9.36547 11.5829 9.43937 11.5778 9.51073C11.9703 9.76557 12.3348 10.0332 12.6688 10.3135C14.3129 9.20237 16.1583 8.35884 18.1287 7.82877L6.96154 0.262512C-3.12232 12.5051 0.785304 24.2177 5.6539 28.0428C5.09057 25.2982 4.79743 20.7671 7.28016 16.208Z"
                    fill="#D11316" />
                <path id="Vector_3"
                    d="M8.2688 16.7482C5.71725 21.4348 6.30862 26.1035 6.92038 28.5398C8.0037 27.5102 10.1958 25.2905 11.9139 22.6478C14.779 18.239 15.0976 14.6814 12.8621 12.0744C12.7729 11.9699 12.6786 11.868 12.5792 11.7661C10.8153 13.1014 9.33938 14.7834 8.2688 16.7482Z"
                    fill="#D11316" />
            </g>
            <path id="Vector_4"
                d="M21.718 9.22528C22.8907 9.22528 23.8414 8.27486 23.8414 7.10245C23.8414 5.93004 22.8907 4.97961 21.718 4.97961C20.5454 4.97961 19.5947 5.93004 19.5947 7.10245C19.5947 8.27486 20.5454 9.22528 21.718 9.22528Z"
                fill="#D11316" />
        </g>
    </g>
    <defs>
        <clipPath id="clip0_168_6576">
            <rect width="29" height="30" fill="white" />
        </clipPath>
    </defs>
</svg>